<svg xmlns="http://www.w3.org/2000/svg" width="176.459" height="110.288" viewBox="0 0 176.459 110.288"><g id="Group_1" data-name="Group 1" transform="translate(-824.544 -530.958)"><rect id="Rectangle_4" width="31.194" height="31.194" fill="#fff" data-name="Rectangle 4" opacity=".6" transform="translate(868.659 553.016) rotate(45)"/><path id="Rectangle_11" fill="#fff" d="M0,0H31.194V31.194H4a4,4,0,0,1-4-4Z" data-name="Rectangle 11" opacity=".8" transform="translate(846.602 575.073) rotate(45)"/><rect id="Rectangle_7" width="31.194" height="31.194" fill="#fff" data-name="Rectangle 7" opacity=".6" transform="translate(912.774 553.016) rotate(45)"/><rect id="Rectangle_9" width="31.194" height="31.194" fill="#fff" data-name="Rectangle 9" opacity=".8" transform="translate(890.716 575.073) rotate(45)"/><path id="Rectangle_13" fill="#fff" d="M0,0H31.194V27.194a4,4,0,0,1-4,4H0Z" data-name="Rectangle 13" transform="translate(912.774 597.131) rotate(45)"/><path id="Rectangle_14" fill="#fff" d="M0,0H31.194V27.194a4,4,0,0,1-4,4H0Z" data-name="Rectangle 14" transform="translate(868.659 597.131) rotate(45)"/><path id="Rectangle_15" fill="#fff" d="M0,0H31.194V27.194a4,4,0,0,1-4,4H0Z" data-name="Rectangle 15" transform="translate(956.889 597.131) rotate(45)"/><rect id="Rectangle_10" width="31.194" height="31.194" fill="#fff" data-name="Rectangle 10" opacity=".8" transform="translate(934.831 575.073) rotate(45)"/><path id="Rectangle_12" fill="#fff" d="M0,0H27.194a4,4,0,0,1,4,4V31.194H0Z" data-name="Rectangle 12" opacity=".8" transform="translate(978.946 575.073) rotate(45)"/><rect id="Rectangle_8" width="31.194" height="31.194" fill="#fff" data-name="Rectangle 8" opacity=".6" transform="translate(956.889 553.016) rotate(45)"/><path id="Rectangle_5" fill="#fff" d="M3,0H31.194V31.194H0V3A3,3,0,0,1,3,0Z" data-name="Rectangle 5" opacity=".4" transform="translate(890.716 530.958) rotate(45)"/><path id="Rectangle_6" fill="#fff" d="M3,0H31.194V31.194H0V3A3,3,0,0,1,3,0Z" data-name="Rectangle 6" opacity=".4" transform="translate(934.831 530.958) rotate(45)"/></g></svg>